<mxfile host="app.diagrams.net" modified="2023-10-30T05:43:07.724Z" agent="Mozilla/5.0 (Macintosh; Intel Mac OS X 10_15_7) AppleWebKit/605.1.15 (KHTML, like Gecko) Version/17.0 Safari/605.1.15" version="22.0.8" etag="hro1hDfAp4tIEGI2mhaa" type="github">
  <diagram name="第 1 页" id="i1kklar53S_GGs_v64jb">
    <mxGraphModel>
      <root>
        <mxCell id="0" />
        <mxCell id="1" parent="0" />
      </root>
    </mxGraphModel>
  </diagram>
</mxfile>
